Coordinates
version=1
nRows=17
nColumns=27
inDegrees=yes

Units are S.I. units (second, meters, Newtons, ...)
If the header above contains a line with 'inDegrees', this indicates whether rotational values are in degrees (yes) or radians (no).

endheader
time	pelvis_rotation	pelvis_tilt	pelvis_list	pelvis_tx	pelvis_ty	pelvis_tz	hip_flexion_r	hip_adduction_r	hip_rotation_r	knee_angle_r	knee_rotation_r	knee_adduction_r	knee_angle_r_beta	ankle_angle_r	subtalar_angle_r	mtp_angle_r	hip_flexion_l	hip_adduction_l	hip_rotation_l	knee_angle_l	knee_rotation_l	knee_adduction_l	knee_angle_l_beta	ankle_angle_l	subtalar_angle_l	mtp_angle_l
     11.51000000	      6.78581519	    -44.24046383	      7.36725398	     -0.10637057	      0.85334038	     -1.19801472	     82.08350984	    -16.85729572	    -12.43872036	     44.57792074	      0.00000000	      8.63851754	      0.77803149	      4.21640308	      0.00000000	      0.00000000	     78.44568584	     -4.84374151	    -15.16116721	     37.26484569	      0.00000000	     -9.13835641	      0.65039425	      0.40770452	      0.00000000	      0.00000000
     11.51500000	      6.64256895	    -44.28207050	      7.18882345	     -0.10682357	      0.85223126	     -1.19751376	     82.32054809	    -16.69615025	    -12.33677044	     44.88794293	      0.00000000	      8.59054018	      0.78344240	      4.33117143	      0.00000000	      0.00000000	     78.78570084	     -5.05933170	    -15.01436780	     37.74378320	      0.00000000	     -9.15310667	      0.65875329	      0.58055318	      0.00000000	      0.00000000
     11.52000000	      6.63228834	    -44.12893488	      6.96038285	     -0.10692990	      0.85122172	     -1.19706728	     82.28068626	    -16.65447688	    -12.44773381	     45.20526540	      0.00000000	      8.58445846	      0.78898072	      4.47686651	      0.00000000	      0.00000000	     78.92366762	     -5.18187821	    -14.75525058	     38.18021000	      0.00000000	     -9.17569984	      0.66637037	      0.69715952	      0.00000000	      0.00000000
     11.52500000	      6.72657979	    -44.64566070	      6.87578337	     -0.10838988	      0.84960255	     -1.19659051	     83.19237652	    -16.44905482	    -11.88153352	     45.67859235	      0.00000000	      7.88270961	      0.79724183	      4.50816760	      0.00000000	      0.00000000	     79.94619893	     -5.18381506	    -14.06442068	     38.74597020	      0.00000000	     -8.63355602	      0.67624475	      0.76384968	      0.00000000	      0.00000000
     11.53000000	      6.80279765	    -44.22789991	      7.00022960	     -0.10788291	      0.84886695	     -1.19640752	     82.92497563	    -16.71900020	    -12.15652291	     46.02154066	      0.00000000	      8.47598280	      0.80322741	      4.77692299	      0.00000000	      0.00000000	     79.60255197	     -5.16399661	    -14.33778168	     38.97115890	      0.00000000	     -9.14222511	      0.68017504	      0.99073554	      0.00000000	      0.00000000
     11.53500000	      6.84239507	    -44.21398647	      7.17941160	     -0.10837274	      0.84770011	     -1.19623453	     83.26493144	    -16.75862093	    -11.79655010	     46.44497270	      0.00000000	      8.42941249	      0.81061769	      4.91515645	      0.00000000	      0.00000000	     79.81109471	     -5.13180970	    -14.35155351	     39.31224461	      0.00000000	     -9.13146371	      0.68612810	      1.13329832	      0.00000000	      0.00000000
     11.54000000	      6.69476867	    -44.18586894	      6.79995112	     -0.10863471	      0.84674880	     -1.19559680	     83.28876061	    -16.53983157	    -11.89084536	     46.66516424	      0.00000000	      8.36122000	      0.81446076	      5.02864719	      0.00000000	      0.00000000	     80.08601968	     -5.38293321	    -14.02657696	     39.76103267	      0.00000000	     -9.14933792	      0.69396093	      1.25743219	      0.00000000	      0.00000000
     11.54500000	      6.53213570	    -44.53574096	      6.45734722	     -0.10981427	      0.84536149	     -1.19498987	     83.87932402	    -16.11982617	    -11.42326427	     46.96603376	      0.00000000	      7.66326250	      0.81971193	      4.99146541	      0.00000000	      0.00000000	     80.88989044	     -5.60345866	    -13.42701279	     40.32585292	      0.00000000	     -8.65044169	      0.70381891	      1.31686131	      0.00000000	      0.00000000
     11.55000000	      6.87007408	    -44.20874750	      6.88215291	     -0.10952441	      0.84463420	     -1.19510377	     83.80943835	    -16.61762889	    -11.57779219	     47.37756807	      0.00000000	      8.25592558	      0.82689455	      5.29152836	      0.00000000	      0.00000000	     80.59982204	     -5.32719637	    -13.72599970	     40.42113872	      0.00000000	     -9.12242166	      0.70548196	      1.48788171	      0.00000000	      0.00000000
     11.55500000	      6.73786301	    -44.55114104	      6.40908969	     -0.11060174	      0.84341004	     -1.19439765	     84.28007031	    -16.19319714	    -11.31498755	     47.60621044	      0.00000000	      7.57795560	      0.83088512	      5.27294905	      0.00000000	      0.00000000	     81.39359438	     -5.55540813	    -13.00066578	     40.94105275	      0.00000000	     -8.63531031	      0.71455617	      1.50376919	      0.00000000	      0.00000000
     11.56000000	      6.74899318	    -43.67642389	      6.16453658	     -0.10926379	      0.84347282	     -1.19404274	     83.14998243	    -16.39115972	    -12.05265606	     47.60356056	      0.00000000	      8.17110900	      0.83083887	      5.53503951	      0.00000000	      0.00000000	     80.42179761	     -5.62106310	    -13.11939154	     40.91626826	      0.00000000	     -9.19027105	      0.71412360	      1.70200318	      0.00000000	      0.00000000
     11.56500000	      7.04384895	    -44.27614320	      6.61340905	     -0.11076208	      0.84190429	     -1.19408199	     84.34900262	    -16.56922609	    -11.48759557	     48.20420301	      0.00000000	      8.07261751	      0.84132206	      5.60086373	      0.00000000	      0.00000000	     81.39295656	     -5.41916610	    -13.10130144	     41.34334163	      0.00000000	     -9.11437702	      0.72157744	      1.76916113	      0.00000000	      0.00000000
     11.57000000	      6.89138484	    -44.20198625	      6.11315864	     -0.11088406	      0.84129165	     -1.19340779	     84.19437269	    -16.33241801	    -11.75905134	     48.29539839	      0.00000000	      7.98993754	      0.84291372	      5.68260424	      0.00000000	      0.00000000	     81.55511110	     -5.69628093	    -12.77106361	     41.66396825	      0.00000000	     -9.16029779	      0.72717343	      1.84884247	      0.00000000	      0.00000000
     11.57500000	      7.33594190	    -44.72013724	      6.67894868	     -0.11256028	      0.83981133	     -1.19363800	     85.31744162	    -16.50506496	    -10.84911786	     48.81924944	      0.00000000	      7.37719482	      0.85205664	      5.67801666	      0.00000000	      0.00000000	     82.39855475	     -5.26473069	    -12.49229507	     41.90693573	      0.00000000	     -8.59838983	      0.73141401	      1.78576011	      0.00000000	      0.00000000
     11.58000000	      7.55618728	    -44.41655088	      6.52821232	     -0.11209812	      0.83949831	     -1.19333195	     84.92105357	    -16.78422753	    -11.50503329	     48.96804429	      0.00000000	      7.88215300	      0.85465360	      5.87231911	      0.00000000	      0.00000000	     82.19121599	     -5.23661798	    -12.44937360	     42.04060139	      0.00000000	     -9.10273139	      0.73374691	      1.93042102	      0.00000000	      0.00000000
     11.58500000	      7.69937847	    -44.71721524	      6.18236956	     -0.11306174	      0.83851531	     -1.19286199	     85.29595968	    -16.62481661	    -11.45868659	     49.16560193	      0.00000000	      7.29277780	      0.85810163	      5.86409851	      0.00000000	      0.00000000	     82.88480244	     -5.22525125	    -11.69037275	     42.39100298	      0.00000000	     -8.61057507	      0.73986258	      1.87942984	      0.00000000	      0.00000000
     11.59000000	      7.94273291	    -44.45181985	      6.18298351	     -0.11273553	      0.83816225	     -1.19269204	     85.02168468	    -16.93358843	    -11.93584610	     49.35267498	      0.00000000	      7.79326625	      0.86136667	      6.06305733	      0.00000000	      0.00000000	     82.68163451	     -5.15002848	    -11.77564163	     42.47835270	      0.00000000	     -9.11412371	      0.74138712	      2.00916663	      0.00000000	      0.00000000
